<?xml version="1.0" standalone="no"?>
<!DOCTYPE svg PUBLIC "-//W3C//DTD SVG 20010904//EN"
 "http://www.w3.org/TR/2001/REC-SVG-20010904/DTD/svg10.dtd">
<svg version="1.0" xmlns="http://www.w3.org/2000/svg"
 width="512.000000pt" height="512.000000pt" viewBox="0 0 512.000000 512.000000"
 preserveAspectRatio="xMidYMid meet">
<metadata>
Created by potrace 1.14, written by Peter Selinger 2001-2017
</metadata>
<g transform="translate(0.000000,512.000000) scale(0.100000,-0.100000)"
fill="#000000" stroke="none">
<path d="M570 5110 c0 -5 9 -7 20 -5 11 2 18 1 16 -3 -3 -5 -28 -7 -56 -6 -40
1 -50 -2 -46 -13 4 -9 2 -11 -7 -6 -22 14 -36 12 -30 -5 5 -14 3 -14 -7 -5
-10 9 -16 8 -28 -3 -8 -8 -27 -18 -43 -21 -15 -3 -30 -12 -33 -20 -3 -8 -10
-11 -16 -8 -5 3 -10 -1 -10 -9 0 -10 -6 -13 -17 -9 -10 4 -14 2 -9 -5 3 -6 2
-13 -4 -17 -5 -3 -10 -1 -10 6 0 7 -3 9 -7 5 -5 -4 -8 -12 -8 -17 0 -5 -4 -10
-10 -11 -17 -3 -33 -22 -27 -32 3 -5 -2 -7 -10 -3 -11 4 -18 -1 -21 -15 -3
-11 -10 -17 -16 -13 -7 3 -8 0 -5 -9 4 -12 0 -16 -16 -16 -18 0 -20 -3 -11
-14 9 -11 9 -16 0 -22 -8 -5 -10 -3 -4 7 4 8 -1 5 -12 -6 -16 -15 -18 -23 -9
-34 8 -12 8 -13 -2 -7 -15 9 -44 -22 -37 -41 2 -6 -3 -14 -12 -17 -9 -4 -13
-9 -10 -13 4 -3 -1 -12 -11 -20 -10 -9 -11 -11 -2 -7 13 7 13 5 2 -9 -8 -9
-11 -26 -8 -39 3 -13 3 -17 0 -10 -9 20 -27 14 -21 -8 3 -11 2 -20 -3 -20 -4
0 -6 -11 -5 -25 2 -14 0 -23 -5 -20 -4 3 -11 -2 -14 -11 -3 -8 -6 -908 -6
-1999 0 -1742 2 -1985 15 -1999 11 -11 12 -16 2 -19 -9 -4 -9 -6 1 -6 7 -1 12
-14 12 -31 0 -16 5 -30 11 -30 5 0 7 -4 4 -10 -3 -5 -1 -10 5 -10 6 0 8 -5 5
-10 -3 -6 -1 -10 6 -10 8 0 8 -4 -1 -16 -8 -8 -9 -14 -4 -13 5 1 16 1 24 0 13
-1 13 -2 0 -11 -11 -7 -11 -10 -2 -10 7 0 10 -5 6 -12 -4 -6 -3 -8 4 -4 6 3
13 2 16 -3 4 -5 2 -12 -4 -16 -13 -8 9 -31 36 -38 17 -4 17 -5 1 -6 -16 -1
-14 -4 7 -25 15 -13 26 -28 26 -35 0 -6 7 -11 15 -11 9 0 19 -8 22 -17 9 -23
29 -43 42 -43 6 0 11 -4 11 -10 0 -5 4 -10 10 -10 15 0 59 -48 51 -57 -3 -4 2
-1 11 6 16 12 22 9 20 -10 -1 -4 9 -5 21 -2 18 4 19 3 7 -6 -12 -9 -10 -11 13
-11 16 0 26 -4 23 -9 -3 -5 1 -12 10 -15 9 -4 13 -2 8 5 -4 7 -1 10 7 7 8 -3
13 -10 12 -15 -2 -8 23 -14 79 -17 20 -1 24 -4 16 -13 -8 -11 393 -13 2022
-13 1756 0 2030 2 2020 15 -10 12 -7 13 14 9 14 -2 26 0 26 5 0 6 7 8 15 5 8
-4 15 -1 15 5 0 6 3 10 8 10 21 -4 32 2 26 14 -5 7 0 6 11 -3 10 -8 16 -10 12
-4 -4 7 1 18 10 25 12 10 14 10 9 1 -4 -6 -3 -12 2 -12 6 0 13 7 16 16 4 9 9
14 13 11 11 -11 45 14 39 29 -4 12 -2 12 14 4 16 -9 20 -8 20 5 0 8 7 15 16
15 8 0 12 5 9 10 -3 5 -1 11 4 11 6 1 16 2 21 3 6 0 11 6 11 11 1 6 10 16 21
23 10 7 16 18 12 23 -3 5 0 8 8 7 7 -2 12 3 10 11 -2 8 3 11 12 8 10 -4 13 -1
10 7 -3 8 7 26 23 40 15 14 24 26 20 26 -5 0 1 12 13 27 16 21 18 28 8 36 -9
6 -6 7 8 4 19 -4 22 0 20 25 -1 17 3 32 10 35 7 2 10 12 7 20 -4 11 -2 14 5 9
15 -9 16 6 2 22 -6 6 -7 10 -4 7 4 -3 13 7 20 21 11 21 14 379 14 2011 0 1881
-1 1987 -17 2007 -17 19 -17 20 0 7 9 -7 17 -9 17 -3 0 15 -26 33 -35 24 -5
-4 -4 0 1 8 14 24 12 60 -5 60 -8 0 -11 3 -8 7 4 3 -1 15 -10 26 -10 11 -13
17 -6 14 6 -4 15 -2 19 4 4 8 3 9 -4 5 -7 -4 -17 7 -26 29 -8 19 -21 35 -28
35 -9 0 -9 3 2 10 13 8 12 10 -3 10 -10 0 -15 5 -12 10 3 6 1 10 -5 10 -6 0
-8 5 -5 10 3 6 -1 10 -10 10 -9 0 -13 5 -10 10 3 6 1 10 -5 10 -6 0 -8 5 -5
10 4 6 3 10 -2 9 -4 -1 -14 -1 -22 0 -11 1 -11 4 0 18 12 15 12 16 -3 10 -10
-3 -22 1 -30 11 -11 13 -11 15 2 7 8 -4 6 1 -5 12 -11 11 -22 19 -24 17 -2 -1
-14 10 -28 27 -14 16 -29 27 -34 23 -5 -3 -9 0 -9 6 0 6 -4 9 -9 5 -6 -3 -20
5 -32 17 -12 13 -18 16 -14 8 5 -9 -1 -7 -14 5 -13 11 -25 19 -27 18 -2 -2
-10 -3 -16 -3 -9 0 -8 4 2 11 12 8 10 9 -10 7 -18 -2 -24 1 -22 12 2 8 0 12
-3 8 -4 -4 -16 -3 -26 3 -14 7 -19 6 -19 -3 0 -9 -3 -10 -8 -2 -4 6 -15 10
-24 9 -9 -2 -19 3 -22 11 -4 12 -309 14 -2001 14 -1231 0 -1995 -4 -1995 -10z
m4276 -141 c19 -22 19 -22 -3 -8 -13 8 -23 17 -23 21 0 12 6 9 26 -13z"/>
</g>
</svg>
