<?xml version="1.0" standalone="no"?>
<!DOCTYPE svg PUBLIC "-//W3C//DTD SVG 20010904//EN"
 "http://www.w3.org/TR/2001/REC-SVG-20010904/DTD/svg10.dtd">
<svg version="1.0" xmlns="http://www.w3.org/2000/svg"
 width="1024.000000pt" height="1024.000000pt" viewBox="0 0 1024.000000 1024.000000"
 preserveAspectRatio="xMidYMid meet">
<metadata>
Created by potrace 1.14, written by Peter Selinger 2001-2017
</metadata>
<g transform="translate(0.000000,1024.000000) scale(0.100000,-0.100000)"
fill="#000000" stroke="none">
<path d="M3068 9235 c-2 -1 -68 -5 -148 -9 -168 -7 -261 -16 -430 -41 -193
-29 -492 -145 -660 -255 -144 -96 -305 -239 -409 -365 -59 -72 -159 -228 -205
-322 -38 -77 -110 -262 -121 -313 -2 -8 -8 -35 -15 -60 -6 -25 -12 -54 -14
-65 -2 -11 -6 -33 -9 -50 -3 -16 -8 -48 -12 -70 -3 -23 -7 -50 -9 -62 -6 -29
-19 -188 -20 -235 0 -21 -3 -38 -6 -38 -3 0 -4 -48 -2 -106 3 -86 1 -104 -10
-98 -10 6 -10 4 -2 -7 12 -16 13 -177 1 -196 -5 -7 -5 -13 0 -13 4 0 7 -26 6
-57 -2 -48 -4 -2412 -2 -2568 0 -27 0 -54 -1 -60 -1 -5 -1 -14 0 -20 4 -24 5
-113 0 -110 -3 2 -4 -12 -3 -31 2 -19 4 -50 6 -69 1 -19 -1 -35 -6 -35 -4 0
-6 -4 -2 -9 10 -17 13 -91 3 -91 -5 0 -6 -5 -2 -12 6 -9 9 -94 4 -108 -6 -16
-6 -50 0 -50 4 0 7 -7 7 -15 0 -8 -5 -15 -11 -15 -8 0 -8 -3 -1 -8 14 -9 14
-235 0 -244 -6 -5 -5 -8 4 -8 11 0 11 -3 1 -15 -9 -10 -9 -15 -1 -15 13 0 10
-22 -4 -32 -7 -5 -6 -8 0 -8 6 0 11 -9 12 -20 1 -13 -2 -18 -9 -14 -7 5 -8 2
-2 -7 11 -19 13 -201 2 -216 -5 -7 -5 -14 1 -18 6 -3 11 -42 11 -88 0 -45 2
-96 4 -114 4 -24 1 -33 -12 -36 -16 -4 -15 -5 1 -6 13 -1 17 -11 18 -48 0 -27
2 -57 5 -68 2 -11 5 -52 6 -91 2 -40 6 -70 10 -68 4 3 7 -4 6 -13 0 -20 8 -75
17 -111 3 -12 7 -30 9 -41 2 -10 9 -35 14 -54 6 -20 7 -38 4 -41 -3 -3 -1 -6
4 -6 9 0 14 -17 17 -62 1 -9 5 -14 9 -12 4 3 8 -2 8 -10 0 -9 -6 -16 -12 -16
-7 -1 -4 -6 7 -13 25 -15 29 -34 13 -56 -11 -14 -11 -14 4 -3 14 11 18 7 33
-40 10 -29 22 -58 26 -64 22 -27 67 -129 62 -137 -3 -6 -1 -7 5 -3 6 4 18 -6
27 -24 13 -26 14 -35 4 -48 -11 -14 -11 -15 1 -4 8 6 17 12 21 12 6 0 16 -28
18 -46 0 -3 11 -14 25 -25 15 -11 26 -25 26 -31 0 -5 10 -19 22 -30 13 -11 17
-16 9 -12 -8 4 9 -15 37 -43 48 -47 67 -73 42 -58 -5 3 -10 1 -10 -5 0 -7 8
-9 20 -5 22 7 28 -10 8 -19 -7 -3 -4 -4 8 -1 15 4 24 -2 34 -20 7 -14 18 -25
24 -25 6 0 26 -16 45 -35 30 -30 32 -34 13 -30 -13 2 -20 0 -17 -5 3 -5 15 -7
26 -5 13 3 30 -5 45 -20 13 -14 25 -24 27 -23 2 3 99 -62 107 -71 3 -3 17 -12
32 -20 16 -8 28 -18 28 -23 0 -5 5 -6 10 -3 6 3 10 -2 10 -12 0 -14 2 -15 9
-4 12 18 34 3 26 -18 -5 -12 -3 -13 5 -5 12 12 60 -3 60 -19 0 -5 4 -5 10 -2
5 3 10 2 10 -3 0 -5 6 -9 13 -9 6 0 29 -7 50 -16 20 -9 39 -15 41 -14 1 1 10
-4 19 -12 10 -7 17 -11 17 -7 0 3 17 -1 38 -10 20 -8 48 -18 62 -20 14 -3 26
-9 28 -14 2 -4 12 -6 22 -3 15 4 20 0 20 -13 0 -13 3 -15 8 -7 6 10 19 9 59
-1 29 -8 54 -11 57 -8 3 3 6 1 6 -4 0 -5 21 -9 46 -10 25 0 49 -7 54 -14 6
-10 9 -9 13 1 4 10 6 9 6 -3 1 -11 8 -18 19 -17 10 0 12 3 5 6 -22 8 -14 20
11 16 13 -3 29 -15 35 -26 11 -22 11 -22 5 1 -6 26 12 27 34 2 8 -8 11 -9 7
-2 -10 20 62 15 74 -5 10 -17 10 -16 11 2 l1 20 9 -20 c5 -11 9 -15 9 -9 1 12
41 27 41 16 0 -4 22 -7 50 -6 33 1 47 -2 43 -10 -4 -6 1 -5 10 3 14 11 17 11
17 0 0 -11 3 -11 11 1 8 12 10 10 5 -10 -5 -24 -4 -24 9 -6 15 20 95 30 95 13
0 -4 5 -5 12 -1 7 5 9 2 6 -8 -4 -8 -1 -15 7 -15 7 0 11 6 8 13 -3 9 14 12 66
11 44 0 71 -4 71 -11 0 -8 2 -8 8 0 4 6 33 10 66 10 49 -1 60 -4 62 -19 1 -11
5 -22 9 -25 3 -4 4 5 2 19 -5 25 -4 26 51 25 45 -1 56 -4 58 -19 1 -11 5 -22
9 -25 3 -4 4 5 2 19 -5 25 -4 26 51 25 45 -1 56 -4 58 -19 1 -11 5 -22 9 -25
3 -4 4 5 2 19 l-5 26 116 -1 c82 -1 117 -4 117 -13 0 -6 3 -15 7 -19 4 -3 6 2
4 13 -4 18 1 20 52 19 51 -1 57 -3 56 -22 -1 -11 5 -21 12 -21 7 0 10 5 6 11
-18 29 -8 33 86 32 84 -1 95 -3 98 -19 1 -11 5 -22 9 -25 3 -4 4 5 1 20 -4 26
-4 26 51 24 46 -1 57 -4 59 -19 1 -11 5 -22 9 -25 3 -4 4 5 2 19 l-5 26 96 -1
c67 -1 97 -5 97 -13 0 -6 3 -15 7 -19 4 -3 6 2 4 13 -4 18 1 20 52 19 36 -1
57 -5 57 -13 0 -6 3 -15 7 -19 4 -3 6 2 4 13 -4 19 1 20 91 19 85 -1 96 -3 99
-19 1 -11 5 -22 9 -25 3 -4 4 5 1 20 -4 26 -4 26 51 24 46 -1 57 -4 59 -19 1
-11 5 -22 9 -25 3 -4 4 5 2 19 l-5 26 111 -1 c62 -1 112 -4 112 -7 0 -11 28
-39 39 -39 6 0 5 4 -3 9 -8 5 -16 16 -17 23 -1 11 11 14 54 14 45 -1 56 -4 58
-19 1 -11 5 -22 9 -25 3 -4 4 5 2 19 -5 25 -4 26 51 25 45 -1 56 -4 58 -19 1
-11 5 -22 9 -25 3 -4 4 5 2 19 -5 25 -4 26 51 25 36 -1 57 -5 57 -13 0 -6 3
-15 7 -19 4 -3 6 2 4 13 -4 18 1 20 52 19 36 -1 57 -5 57 -13 0 -6 3 -15 7
-19 4 -3 6 2 4 12 -4 17 3 20 51 22 43 1 59 -2 69 -16 10 -12 13 -13 9 -2 -8
24 53 26 71 3 10 -13 13 -14 9 -3 -4 12 3 16 31 18 20 2 33 -1 30 -7 -3 -5 1
-11 9 -14 8 -4 12 -1 9 6 -8 21 56 20 72 0 10 -13 13 -14 9 -3 -5 13 4 16 47
15 33 0 53 -4 53 -12 0 -6 3 -15 7 -19 4 -3 6 2 4 13 -4 18 1 20 52 19 36 -1
57 -5 57 -13 0 -6 3 -15 7 -19 4 -3 6 2 4 13 -4 18 1 20 52 19 36 -1 57 -5 57
-13 0 -6 3 -15 7 -19 4 -3 6 2 4 13 -4 18 1 20 52 19 l57 -1 0 -32 c0 -17 3
-34 6 -37 3 -4 5 11 4 32 l-2 39 116 0 c94 0 118 -3 129 -16 10 -14 11 -14 7
-1 -8 24 53 26 71 3 10 -13 13 -14 9 -3 -8 24 53 26 71 3 12 -15 13 -15 8 -2
-5 15 4 17 73 15 43 0 84 -5 91 -9 8 -5 11 -4 10 3 -3 14 87 20 114 8 10 -5
18 -3 21 5 3 6 6 3 6 -8 1 -16 3 -17 10 -6 12 19 42 23 60 8 12 -9 13 -9 7 1
-4 6 -2 12 3 12 6 0 11 -8 12 -17 0 -16 1 -15 8 2 8 19 8 19 20 0 10 -16 11
-16 7 -3 -4 15 1 18 30 18 19 0 33 -4 30 -9 -7 -11 14 -9 34 4 26 16 42 15 36
-3 -5 -15 -4 -15 7 -2 6 8 19 17 27 19 37 8 60 7 60 -3 0 -6 4 -5 9 3 5 8 16
11 24 8 9 -3 17 -2 19 4 2 5 29 10 60 12 32 1 58 5 58 8 0 3 6 6 13 7 6 0 32
4 57 7 25 4 51 7 58 8 6 0 12 5 12 10 0 5 7 7 15 4 8 -4 17 -2 20 3 10 15 23
12 28 -7 3 -13 5 -11 6 6 1 19 5 23 26 19 13 -3 22 -1 19 3 -5 8 17 14 39 10
4 0 7 3 7 9 0 5 5 10 11 10 6 0 8 -7 5 -16 -3 -8 -2 -12 4 -9 6 3 10 12 10 19
0 9 53 37 80 41 3 0 15 6 27 13 18 10 24 9 33 -5 9 -15 10 -14 4 6 -5 20 -3
23 10 18 10 -4 15 -3 11 3 -3 6 -1 10 6 10 7 0 20 7 30 16 9 8 25 17 34 18 9
1 32 15 51 30 19 15 40 24 47 20 6 -4 9 -4 5 1 -9 9 51 57 62 50 5 -3 11 2 14
11 3 8 11 12 16 9 6 -4 9 -2 8 4 -2 6 18 26 44 44 26 19 45 37 41 41 -3 3 -2
6 4 6 6 0 27 16 47 36 19 19 40 33 45 30 5 -4 13 -1 17 5 4 8 3 9 -4 5 -25
-15 -11 13 18 37 17 14 30 31 30 37 0 7 9 9 23 5 16 -5 18 -4 8 3 -12 9 -12
12 0 26 8 8 20 22 27 31 7 8 17 13 22 10 4 -3 6 5 2 17 -3 14 -2 19 6 14 7 -4
12 -1 12 7 0 7 8 22 18 33 9 11 25 33 34 49 10 17 22 29 27 28 6 -2 8 3 5 11
-3 7 1 20 8 27 13 15 51 89 62 122 3 10 10 15 16 12 6 -4 7 -11 4 -17 -4 -7
-2 -8 5 -4 9 6 9 11 1 21 -14 17 5 69 22 59 7 -4 8 -3 4 5 -8 12 22 111 37
122 5 3 8 8 7 10 -6 14 14 78 23 72 6 -3 7 -1 3 5 -9 14 15 122 27 122 4 0 6
4 3 9 -3 4 1 50 10 102 8 52 16 106 16 121 1 15 5 25 11 21 5 -3 4 4 -2 16 -7
11 -8 21 -4 21 5 0 9 24 9 53 3 156 10 267 17 267 5 0 5 5 1 11 -3 6 -6 82 -5
168 1 86 2 984 1 1996 -1 2099 -1 1955 6 1967 3 4 1 8 -3 8 -5 0 -9 9 -10 20
-1 13 2 18 9 14 7 -4 8 -2 4 5 -12 19 -14 61 -4 67 5 3 5 11 -1 18 -5 6 -11
66 -13 134 -2 67 -6 122 -9 122 -3 0 -7 21 -8 48 -3 50 -8 97 -11 97 -4 0 -10
43 -13 82 -1 24 -5 43 -9 43 -5 0 -8 7 -8 16 0 33 -61 228 -100 319 -165 387
-472 706 -850 883 -158 74 -289 114 -475 147 -107 19 -137 23 -225 30 -41 3
-97 9 -125 12 -48 5 -4321 13 -4327 8z m4402 -8219 c0 -3 -4 -8 -10 -11 -5 -3
-10 -1 -10 4 0 6 5 11 10 11 6 0 10 -2 10 -4z"/>
<path d="M1036 2402 c-3 -5 1 -9 9 -9 8 0 12 4 9 9 -3 4 -7 8 -9 8 -2 0 -6 -4
-9 -8z"/>
<path d="M1200 1940 c8 -5 20 -10 25 -10 6 0 3 5 -5 10 -8 5 -19 10 -25 10 -5
0 -3 -5 5 -10z"/>
<path d="M1335 1711 c-3 -5 -2 -12 3 -15 5 -3 9 1 9 9 0 17 -3 19 -12 6z"/>
<path d="M8890 1699 c0 -5 5 -7 10 -4 6 3 10 8 10 11 0 2 -4 4 -10 4 -5 0 -10
-5 -10 -11z"/>
<path d="M1454 1606 c1 -8 5 -18 8 -22 4 -3 5 1 4 10 -1 8 -5 18 -8 22 -4 3
-5 -1 -4 -10z"/>
<path d="M8753 1565 c0 -8 4 -12 9 -9 5 3 6 10 3 15 -9 13 -12 11 -12 -6z"/>
<path d="M1456 1562 c-2 -4 -1 -14 4 -22 7 -11 9 -9 7 8 -1 24 -3 26 -11 14z"/>
<path d="M8709 1497 c6 -8 7 -18 3 -22 -4 -5 -1 -5 6 -1 10 6 10 11 1 22 -6 8
-14 14 -16 14 -3 0 0 -6 6 -13z"/>
<path d="M8680 1480 c-9 -6 -10 -10 -3 -10 6 0 15 5 18 10 8 12 4 12 -15 0z"/>
<path d="M1535 1460 c-3 -5 -1 -10 4 -10 6 0 11 5 11 10 0 6 -2 10 -4 10 -3 0
-8 -4 -11 -10z"/>
<path d="M1596 1447 c3 -10 9 -15 12 -12 3 3 0 11 -7 18 -10 9 -11 8 -5 -6z"/>
<path d="M8650 1419 c0 -5 5 -7 10 -4 6 3 10 8 10 11 0 2 -4 4 -10 4 -5 0 -10
-5 -10 -11z"/>
<path d="M8573 1394 c0 -9 5 -10 11 -5 6 5 19 7 29 5 11 -1 16 0 12 4 -12 12
-52 9 -52 -4z"/>
<path d="M1664 1382 c4 -3 14 -7 22 -8 9 -1 13 0 10 4 -4 3 -14 7 -22 8 -9 1
-13 0 -10 -4z"/>
<path d="M8559 1333 c-13 -17 -13 -17 6 -3 11 8 22 16 24 17 2 2 0 3 -6 3 -6
0 -17 -8 -24 -17z"/>
<path d="M8495 1330 c-3 -5 -12 -7 -19 -4 -18 7 -30 -12 -15 -22 8 -4 9 -3 5
5 -5 8 0 10 17 7 16 -3 24 1 24 10 0 16 -4 18 -12 4z"/>
<path d="M1775 1280 c6 -30 16 -40 12 -12 -2 12 -6 24 -10 28 -3 4 -4 -4 -2
-16z"/>
<path d="M8395 1280 c-3 -5 -1 -10 4 -10 6 0 11 5 11 10 0 6 -2 10 -4 10 -3 0
-8 -4 -11 -10z"/>
<path d="M8446 1278 c3 -5 10 -6 15 -3 13 9 11 12 -6 12 -8 0 -12 -4 -9 -9z"/>
<path d="M1857 1245 c3 -8 9 -12 14 -9 12 7 11 11 -5 17 -10 4 -13 1 -9 -8z"/>
<path d="M8415 1249 c-4 -6 -5 -12 -2 -15 2 -3 7 2 10 11 7 17 1 20 -8 4z"/>
<path d="M8322 1224 c10 -10 20 -16 22 -13 3 3 -5 11 -17 18 -21 13 -21 12 -5
-5z"/>
<path d="M8287 1199 c7 -7 15 -10 18 -7 3 3 -2 9 -12 12 -14 6 -15 5 -6 -5z"/>
<path d="M1895 1180 c3 -5 8 -10 11 -10 2 0 4 5 4 10 0 6 -5 10 -11 10 -5 0
-7 -4 -4 -10z"/>
<path d="M1959 1173 c-13 -16 -12 -17 4 -4 16 13 21 21 13 21 -2 0 -10 -8 -17
-17z"/>
<path d="M8206 1165 c-18 -14 -18 -14 1 -12 11 0 20 7 20 14 0 7 -1 13 -1 13
-1 0 -9 -7 -20 -15z"/>
<path d="M1976 1153 c-6 -14 -5 -15 5 -6 7 7 10 15 7 18 -3 3 -9 -2 -12 -12z"/>
<path d="M2039 1152 c-13 -15 -12 -16 3 -4 13 10 17 10 21 0 4 -9 6 -9 6 -1 2
20 -16 24 -30 5z"/>
<path d="M2000 1140 c-9 -6 -10 -10 -3 -10 6 0 15 5 18 10 8 12 4 12 -15 0z"/>
<path d="M8135 1139 c-4 -5 2 -6 12 -2 16 6 17 5 3 -13 -14 -19 -14 -19 8 0
12 11 22 20 22 20 0 7 -41 3 -45 -5z"/>
<path d="M2069 1117 c6 -8 7 -18 3 -22 -4 -5 -1 -5 6 -1 10 6 10 11 1 22 -6 8
-14 14 -16 14 -3 0 0 -6 6 -13z"/>
<path d="M8109 1103 c-13 -16 -12 -17 4 -4 16 13 21 21 13 21 -2 0 -10 -8 -17
-17z"/>
<path d="M2127 1099 c7 -7 15 -10 18 -7 3 3 -2 9 -12 12 -14 6 -15 5 -6 -5z"/>
<path d="M8155 1101 c-3 -5 -2 -12 3 -15 5 -3 9 1 9 9 0 17 -3 19 -12 6z"/>
<path d="M2177 1085 c3 -8 9 -12 14 -9 12 7 11 11 -5 17 -10 4 -13 1 -9 -8z"/>
<path d="M2275 1080 c-3 -5 -1 -10 4 -10 6 0 11 5 11 10 0 6 -2 10 -4 10 -3 0
-8 -4 -11 -10z"/>
<path d="M8030 1070 c6 -11 13 -20 16 -20 2 0 0 9 -6 20 -6 11 -13 20 -16 20
-2 0 0 -9 6 -20z"/>
<path d="M2130 1059 c0 -5 5 -7 10 -4 6 3 10 8 10 11 0 2 -4 4 -10 4 -5 0 -10
-5 -10 -11z"/>
<path d="M2200 1060 c-9 -6 -10 -10 -3 -10 6 0 15 5 18 10 8 12 4 12 -15 0z"/>
<path d="M2233 1053 c0 -9 4 -10 14 -2 7 6 13 12 13 14 0 1 -6 2 -13 2 -8 0
-14 -6 -14 -14z"/>
<path d="M8090 1060 c0 -5 5 -10 11 -10 5 0 7 5 4 10 -3 6 -8 10 -11 10 -2 0
-4 -4 -4 -10z"/>
<path d="M7810 1050 c-9 -6 -10 -10 -3 -10 6 0 15 5 18 10 8 12 4 12 -15 0z"/>
<path d="M7913 1045 c0 -8 4 -15 9 -15 4 0 8 4 8 9 0 6 -4 12 -8 15 -5 3 -9
-1 -9 -9z"/>
<path d="M2400 1040 c-9 -6 -10 -10 -3 -10 6 0 15 5 18 10 8 12 4 12 -15 0z"/>
<path d="M7840 1040 c-9 -6 -10 -10 -3 -10 6 0 15 5 18 10 8 12 4 12 -15 0z"/>
<path d="M2507 1027 c-3 -8 1 -14 8 -14 7 0 11 6 8 14 -3 7 -6 13 -8 13 -2 0
-5 -6 -8 -13z"/>
<path d="M2420 1025 c0 -2 6 -8 13 -14 10 -8 14 -7 14 2 0 8 -6 14 -14 14 -7
0 -13 -1 -13 -2z"/>
<path d="M2468 1023 c10 -4 10 -9 -3 -23 -12 -14 -13 -20 -4 -26 7 -4 10 -3 6
3 -4 6 0 16 8 23 16 13 11 30 -8 29 -8 0 -8 -2 1 -6z"/>
<path d="M7546 1005 c-11 -8 -15 -15 -9 -15 6 0 16 7 23 15 16 19 11 19 -14 0z"/>
<path d="M2550 1001 c0 -6 4 -13 10 -16 6 -3 7 1 4 9 -7 18 -14 21 -14 7z"/>
<path d="M7640 1000 c-9 -6 -10 -10 -3 -10 6 0 15 5 18 10 8 12 4 12 -15 0z"/>
<path d="M7714 996 c1 -8 5 -18 8 -22 4 -3 5 1 4 10 -1 8 -5 18 -8 22 -4 3 -5
-1 -4 -10z"/>
<path d="M2907 987 c-3 -7 3 -13 14 -13 13 0 15 3 7 13 -6 7 -12 13 -13 13 -2
0 -5 -6 -8 -13z"/>
<path d="M2590 976 c7 -7 13 -7 20 0 6 6 3 10 -10 10 -13 0 -16 -4 -10 -10z"/>
<path d="M2748 983 c7 -3 16 -2 19 1 4 3 -2 6 -13 5 -11 0 -14 -3 -6 -6z"/>
<path d="M2868 983 c6 -2 9 -10 6 -15 -4 -7 -2 -8 5 -4 13 9 5 26 -12 25 -9 0
-8 -2 1 -6z"/>
<path d="M3755 980 c-3 -5 -1 -10 4 -10 6 0 11 5 11 10 0 6 -2 10 -4 10 -3 0
-8 -4 -11 -10z"/>
<path d="M4435 980 c-3 -5 -1 -10 4 -10 6 0 11 5 11 10 0 6 -2 10 -4 10 -3 0
-8 -4 -11 -10z"/>
<path d="M5075 980 c-3 -5 -1 -10 4 -10 6 0 11 5 11 10 0 6 -2 10 -4 10 -3 0
-8 -4 -11 -10z"/>
<path d="M6673 975 c0 -8 4 -12 9 -9 5 3 6 10 3 15 -9 13 -12 11 -12 -6z"/>
<path d="M7038 982 c-14 -6 -13 -9 6 -24 18 -13 23 -13 23 -3 0 8 -5 11 -10 8
-6 -4 -8 0 -4 10 3 10 5 17 4 16 -1 0 -9 -3 -19 -7z"/>
<path d="M7116 973 c-4 -9 -3 -20 1 -24 4 -4 9 3 9 17 2 28 -1 31 -10 7z"/>
<path d="M7750 979 c0 -5 5 -7 10 -4 6 3 10 8 10 11 0 2 -4 4 -10 4 -5 0 -10
-5 -10 -11z"/>
<path d="M7850 986 c0 -2 7 -7 16 -10 8 -3 12 -2 9 4 -6 10 -25 14 -25 6z"/>
<path d="M2655 969 c-4 -6 -5 -12 -2 -15 2 -3 7 2 10 11 7 17 1 20 -8 4z"/>
<path d="M2695 960 c2 -27 10 -33 12 -10 1 11 -2 22 -6 24 -4 3 -7 -4 -6 -14z"/>
<path d="M2775 970 c-4 -6 -10 -8 -14 -6 -4 3 -8 -1 -8 -9 0 -13 4 -12 19 2
18 16 22 23 14 23 -3 0 -8 -5 -11 -10z"/>
<path d="M2949 963 c-13 -16 -12 -17 4 -4 9 7 17 15 17 17 0 8 -8 3 -21 -13z"/>
<path d="M3075 969 c-4 -6 -5 -12 -2 -15 2 -3 7 2 10 11 7 17 1 20 -8 4z"/>
<path d="M4131 964 c0 -11 3 -14 6 -6 3 7 2 16 -1 19 -3 4 -6 -2 -5 -13z"/>
<path d="M5833 965 c0 -8 4 -15 9 -15 4 0 8 4 8 9 0 6 -4 12 -8 15 -5 3 -9 -1
-9 -9z"/>
<path d="M5914 966 c1 -8 5 -18 8 -22 4 -3 5 1 4 10 -1 8 -5 18 -8 22 -4 3 -5
-1 -4 -10z"/>
<path d="M6642 964 c-7 -8 -8 -14 -3 -14 10 0 25 19 20 25 -2 1 -10 -3 -17
-11z"/>
<path d="M6995 970 c-8 -13 3 -30 18 -30 8 0 7 3 -2 9 -7 5 -10 14 -7 20 4 6
5 11 2 11 -3 0 -8 -4 -11 -10z"/>
<path d="M7616 967 c3 -10 9 -15 12 -12 3 3 0 11 -7 18 -10 9 -11 8 -5 -6z"/>
<path d="M2550 959 c0 -5 5 -7 10 -4 6 3 10 8 10 11 0 2 -4 4 -10 4 -5 0 -10
-5 -10 -11z"/>
<path d="M2615 960 c-3 -5 -1 -10 4 -10 6 0 11 5 11 10 0 6 -2 10 -4 10 -3 0
-8 -4 -11 -10z"/>
<path d="M3256 953 c-6 -14 -5 -15 5 -6 7 7 10 15 7 18 -3 3 -9 -2 -12 -12z"/>
<path d="M3373 955 c0 -8 4 -12 9 -9 5 3 6 10 3 15 -9 13 -12 11 -12 -6z"/>
<path d="M3493 955 c0 -8 4 -12 9 -9 5 3 6 10 3 15 -9 13 -12 11 -12 -6z"/>
<path d="M3573 954 c0 -9 4 -11 12 -4 7 5 14 9 16 7 2 -1 3 0 1 2 -7 11 -29 7
-29 -5z"/>
<path d="M3696 959 c4 -8 30 -6 38 2 3 3 -5 5 -19 5 -13 0 -22 -3 -19 -7z"/>
<path d="M3816 959 c4 -8 30 -6 38 2 3 3 -5 5 -19 5 -13 0 -22 -3 -19 -7z"/>
<path d="M3920 960 c-9 -6 -10 -10 -3 -10 6 0 15 5 18 10 8 12 4 12 -15 0z"/>
<path d="M4041 956 c-9 -11 -9 -16 1 -22 7 -4 10 -4 6 1 -4 4 -3 14 3 22 6 7
9 13 6 13 -2 0 -10 -6 -16 -14z"/>
<path d="M4273 952 c2 -12 6 -24 10 -28 3 -4 4 4 2 16 -6 30 -16 40 -12 12z"/>
<path d="M4390 958 c0 -4 4 -8 9 -8 6 0 12 4 15 8 3 5 -1 9 -9 9 -8 0 -15 -4
-15 -9z"/>
<path d="M4560 960 c-9 -6 -10 -10 -3 -10 6 0 15 5 18 10 8 12 4 12 -15 0z"/>
<path d="M4610 960 c0 -5 5 -10 11 -10 5 0 7 5 4 10 -3 6 -8 10 -11 10 -2 0
-4 -4 -4 -10z"/>
<path d="M4681 956 c-9 -11 -9 -16 1 -22 7 -4 10 -4 6 1 -4 4 -3 14 3 22 6 7
9 13 6 13 -2 0 -10 -6 -16 -14z"/>
<path d="M4730 960 c0 -5 5 -10 11 -10 5 0 7 5 4 10 -3 6 -8 10 -11 10 -2 0
-4 -4 -4 -10z"/>
<path d="M4913 951 c0 -11 5 -18 9 -15 4 3 5 11 1 19 -7 21 -12 19 -10 -4z"/>
<path d="M5030 958 c0 -4 4 -8 9 -8 6 0 12 4 15 8 3 5 -1 9 -9 9 -8 0 -15 -4
-15 -9z"/>
<path d="M5155 951 c1 -9 -3 -23 -9 -31 -10 -13 -9 -13 7 -1 9 8 15 16 12 19
-3 3 0 10 5 17 7 8 5 12 -4 12 -8 0 -13 -7 -11 -16z"/>
<path d="M5393 951 c0 -11 5 -18 9 -15 4 3 5 11 1 19 -7 21 -12 19 -10 -4z"/>
<path d="M5493 953 c0 -6 5 -9 11 -5 6 4 14 7 18 7 19 0 14 11 -6 11 -12 0
-23 -6 -23 -13z"/>
<path d="M5613 953 c0 -6 5 -9 11 -5 6 4 14 7 18 7 19 0 14 11 -6 11 -12 0
-23 -6 -23 -13z"/>
<path d="M5733 953 c0 -9 4 -10 12 -3 7 5 15 7 18 3 4 -3 7 -1 7 5 0 6 -8 10
-18 9 -10 0 -19 -7 -19 -14z"/>
<path d="M6130 961 c0 -6 4 -13 10 -16 6 -3 7 1 4 9 -7 18 -14 21 -14 7z"/>
<path d="M6234 962 c4 -3 14 -7 22 -8 9 -1 13 0 10 4 -4 3 -14 7 -22 8 -9 1
-13 0 -10 -4z"/>
<path d="M6354 962 c4 -3 14 -7 22 -8 9 -1 13 0 10 4 -4 3 -14 7 -22 8 -9 1
-13 0 -10 -4z"/>
<path d="M6570 958 c0 -4 4 -8 9 -8 6 0 12 4 15 8 3 5 -1 9 -9 9 -8 0 -15 -4
-15 -9z"/>
<path d="M7166 961 c-3 -4 6 -7 19 -7 14 0 22 2 19 5 -8 8 -34 10 -38 2z"/>
<path d="M7324 962 c4 -3 14 -7 22 -8 9 -1 13 0 10 4 -4 3 -14 7 -22 8 -9 1
-13 0 -10 -4z"/>
<path d="M7473 955 c0 -8 4 -12 9 -9 4 3 8 9 8 15 0 5 -4 9 -8 9 -5 0 -9 -7
-9 -15z"/>
<path d="M3793 945 c0 -8 4 -12 9 -9 5 3 6 10 3 15 -9 13 -12 11 -12 -6z"/>
<path d="M7669 943 c-13 -16 -12 -17 4 -4 16 13 21 21 13 21 -2 0 -10 -8 -17
-17z"/>
<path d="M5940 946 c0 -2 8 -10 18 -17 15 -13 16 -12 3 4 -13 16 -21 21 -21
13z"/>
<path d="M6000 940 c-9 -6 -10 -10 -3 -10 6 0 15 5 18 10 8 12 4 12 -15 0z"/>
<path d="M6596 933 c-6 -14 -5 -15 5 -6 7 7 10 15 7 18 -3 3 -9 -2 -12 -12z"/>
<path d="M6820 946 c0 -2 8 -10 18 -17 15 -13 16 -12 3 4 -13 16 -21 21 -21
13z"/>
<path d="M6950 936 c7 -7 13 -7 20 0 6 6 3 10 -10 10 -13 0 -16 -4 -10 -10z"/>
<path d="M2973 925 c0 -8 4 -12 9 -9 5 3 6 10 3 15 -9 13 -12 11 -12 -6z"/>
<path d="M3053 925 c0 -8 4 -12 9 -9 5 3 6 10 3 15 -9 13 -12 11 -12 -6z"/>
<path d="M3133 925 c0 -8 4 -12 9 -9 5 3 6 10 3 15 -9 13 -12 11 -12 -6z"/>
<path d="M3395 931 c-3 -5 -2 -12 3 -15 5 -3 9 1 9 9 0 17 -3 19 -12 6z"/>
<path d="M4753 925 c0 -8 4 -12 9 -9 5 3 6 10 3 15 -9 13 -12 11 -12 -6z"/>
<path d="M4835 931 c-3 -5 -2 -12 3 -15 5 -3 9 1 9 9 0 17 -3 19 -12 6z"/>
<path d="M5635 931 c-3 -5 -2 -12 3 -15 5 -3 9 1 9 9 0 17 -3 19 -12 6z"/>
<path d="M5775 929 c-4 -6 -5 -12 -2 -15 2 -3 7 2 10 11 7 17 1 20 -8 4z"/>
<path d="M5813 925 c0 -8 4 -12 9 -9 5 3 6 10 3 15 -9 13 -12 11 -12 -6z"/>
<path d="M6629 923 c-13 -16 -12 -17 4 -4 9 7 17 15 17 17 0 8 -8 3 -21 -13z"/>
<path d="M3420 926 c0 -2 8 -10 18 -17 15 -13 16 -12 3 4 -13 16 -21 21 -21
13z"/>
<path d="M4150 916 c7 -7 13 -7 20 0 6 6 3 10 -10 10 -13 0 -16 -4 -10 -10z"/>
<path d="M4310 925 c0 -7 30 -13 34 -7 3 4 -4 9 -15 9 -10 1 -19 0 -19 -2z"/>
<path d="M4790 916 c7 -7 13 -7 20 0 6 6 3 10 -10 10 -13 0 -16 -4 -10 -10z"/>
<path d="M4950 925 c0 -7 30 -13 34 -7 3 4 -4 9 -15 9 -10 1 -19 0 -19 -2z"/>
<path d="M5199 913 c-13 -16 -12 -17 4 -4 9 7 17 15 17 17 0 8 -8 3 -21 -13z"/>
<path d="M5230 919 c0 -5 5 -7 10 -4 6 3 10 8 10 11 0 2 -4 4 -10 4 -5 0 -10
-5 -10 -11z"/>
<path d="M5270 916 c7 -7 13 -7 20 0 6 6 3 10 -10 10 -13 0 -16 -4 -10 -10z"/>
<path d="M5660 926 c0 -2 8 -10 18 -17 15 -13 16 -12 3 4 -13 16 -21 21 -21
13z"/>
<path d="M5895 920 c3 -5 8 -10 11 -10 2 0 4 5 4 10 0 6 -5 10 -11 10 -5 0 -7
-4 -4 -10z"/>
<path d="M6550 926 c0 -2 7 -7 16 -10 8 -3 12 -2 9 4 -6 10 -25 14 -25 6z"/>
</g>
</svg>
